C:\GBW_MyPrograms\KinderuniversiteitApp\Resultaten\Ellis\Jullie\Jullie_v1.mot
version=1
nRows=9
nColumns=29
inDegrees=yes
endheader
                time	         pelvis_tilt	           pelvis_tx	           pelvis_ty	       hip_flexion_l	       hip_flexion_r	        knee_angle_l	        knee_angle_r	       ankle_angle_l	       ankle_angle_r	    lumbar_extension	hamstrings_r/activation	bifemsh_r/activation	glut_max_r/activation	iliopsoas_r/activation	rect_fem_r/activation	  vasti_r/activation	gastroc_r/activation	 soleus_r/activation	tib_ant_r/activation	hamstrings_l/activation	bifemsh_l/activation	glut_max_l/activation	iliopsoas_l/activation	rect_fem_l/activation	  vasti_l/activation	gastroc_l/activation	 soleus_l/activation	tib_ant_l/activation	
          0.00000000	         -7.91913809	          0.00000000	          0.89328811	         -8.91303279	         30.70788849	         -9.86667177	         -8.52368879	          6.28488863	          9.05933842	          1.59363386	          0.23694949	          0.05000052	          0.05168436	          0.05000025	          0.07608916	          0.06793676	          0.05000055	          0.05430790	          0.22302147	          0.05000019	          0.15862386	          0.05000016	          0.59060516	          0.05000023	          0.05000004	          0.18275304	          0.31438696	          0.05000002	
          0.00988473	         -7.93918142	          0.01523625	          0.89278939	         -8.37746970	         29.83129802	        -12.54491211	         -8.03216444	          5.57378984	          8.87950109	          1.95257248	          0.21562293	          0.05000038	          0.06044347	          0.05000024	          0.06532690	          0.08853767	          0.05000010	          0.05000009	          0.24139258	          0.05000008	          0.13618760	          0.05000016	          0.52091609	          0.05000028	          0.05000003	          0.15690385	          0.26991904	          0.05000002	
          0.01976945	         -7.95474218	          0.03065623	          0.89221790	         -7.64315695	         28.91088548	        -15.57752166	         -8.02357270	          4.66048527	          8.63396375	          2.33152000	          0.19040877	          0.05080221	          0.10678456	          0.05000006	          0.05608688	          0.07700340	          0.06130757	          0.05823753	          0.23590857	          0.05641232	          0.11692480	          0.05000021	          0.44723602	          0.05000008	          0.05000003	          0.13471085	          0.23174080	          0.05000001	
          0.02965418	         -7.96881629	          0.04602886	          0.89170324	         -6.68556756	         27.97525439	        -18.94130231	         -8.12940559	          3.40676956	          8.34389206	          2.70468660	          0.16347676	          0.05824344	          0.14165072	          0.05000006	          0.05000008	          0.11238850	          0.05263606	          0.05000025	          0.28452993	          0.05000019	          0.10038659	          0.06783348	          0.38397750	          0.05000014	          0.05000004	          0.11565691	          0.19896262	          0.05000008	
          0.03953891	         -7.98577728	          0.06102697	          0.89148901	         -5.48899189	         27.12351874	        -22.58277821	         -8.30963699	          1.76822276	          7.96264533	          3.03556835	          0.14036994	          0.05000556	          0.19041244	          0.05000004	          0.05000010	          0.18635897	          0.05000013	          0.05000015	          0.30550055	          0.05000029	          0.08618762	          0.05823895	          0.32966647	          0.05000043	          0.05000009	          0.09929802	          0.17082069	          0.25410960	
          0.04942364	         -8.00820747	          0.07540351	          0.89163926	         -4.10309962	         26.38894849	        -26.35849556	         -8.61556725	          0.36542110	          7.62820479	          3.29603058	          0.12051559	          0.05000038	          0.20815190	          0.05000004	          0.05000016	          0.23401953	          0.05000008	          0.05000007	          0.32792072	          0.05000018	          0.07399706	          0.05000214	          0.28303737	          0.13481742	          0.05000003	          0.08525299	          0.14665925	          0.23245543	
          0.05930836	         -8.03769903	          0.08913069	          0.89220646	         -2.64882460	         25.73245468	        -29.91033959	         -8.97860957	          0.07265437	          7.38376422	          3.48511737	          0.10914880	          0.05000093	          0.19834621	          0.05000008	          0.05000021	          0.25671521	          0.05000018	          0.05000023	          0.32776528	          0.05000038	          0.08550631	          0.05000002	          0.24300365	          0.19962553	          0.05000001	          0.07319458	          0.12591528	          0.29628555	
          0.06919309	         -8.07244269	          0.10232685	          0.89326434	         -1.19928408	         25.09442818	        -33.03250522	         -9.31324464	          0.20562483	          7.25236115	          3.61667731	          0.10025558	          0.05000119	          0.19098389	          0.05000008	          0.05000020	          0.25970665	          0.05000023	          0.05000030	          0.32326310	          0.05233961	          0.12961899	          0.05000004	          0.20863247	          0.26566241	          0.05000001	          0.06536311	          0.10810542	          0.29226943	
          0.07907782	         -8.11098377	          0.11511858	          0.89476365	          0.20718641	         24.42669334	        -35.64665090	         -9.54767052	          0.53296820	          7.21103426	          3.70553468	          0.09584252	          0.05000149	          0.17786206	          0.05000008	          0.05000020	          0.24920153	          0.05000035	          0.05000051	          0.31264272	          0.06538807	          0.17614100	          0.05000003	          0.17913541	          0.31408958	          0.05000001	          0.06904479	          0.09281463	          0.28318439	
